<?xml version="1.0" encoding="utf-8"?>
<!-- Generator: Adobe Illustrator 25.0.0, SVG Export Plug-In . SVG Version: 6.00 Build 0)  -->
<svg version="1.1" id="Layer_1" xmlns="http://www.w3.org/2000/svg" xmlns:xlink="http://www.w3.org/1999/xlink" x="0px" y="0px"
	 viewBox="0 0 684 632.9" style="enable-background:new 0 0 684 632.9;" xml:space="preserve">
<style type="text/css">
	.st0{fill:#231F20;}
</style>
<g>
	<path class="st0" d="M681,523l-0.3,19.6c-1.5-13.2,1.2-18.8,0.5-38c-0.4-4.1-0.9,13.3-0.9-3.8l0.4,1c0-23.7-1.2-37.7-1.4-57.1
		c2-4.1,2,36.7,3.3,60.5l0-4.7c0,7.1,0.8-7.9,0.7,4.3c0.3-26.8-1.3-23.3-1.1-57.2c0.8-5.9,1.1-4.8,1.8-12.5
		c-0.7-8.2-0.8-6.9-1.3-20.7c-0.5,5.1,0.4,19.9-0.5,16.1c-0.6-4.6-0.3-13.3-1-15.3c-0.7,10.7-0.5,8.1-0.3,22.7
		c-0.6-1.5-0.9-8.7-1.5-2.3c-0.6-36.2,1.9-72.1,0.2-101.7c1.1,4.3,1-38.3,1.7-14.3l-0.6,1.6c-0.5,19.1,1.2,42.6,1.9,45.9
		c-0.8-36.7,0-42.6-0.3-82.6c1.2,15.8,0.3-22.7,1.4-13.5c0.1-9.1-0.2-19.4,0-26.8c-1.1,20.7-1.2-15.8-2.3-12.3
		c-0.1,12.3,0.6,25.3,1.5,26c0,7.9-0.9,7.1-1.5,5.6l-0.3,27.5c-0.1-0.1-0.2-0.1-0.2-0.1c-0.6-15-2.7,5.9-2.1-18.7
		c0.2-7.4,1.6,1.1,1.2-18.8c0-1.4,0-2.4-0.1-3c0,0,0-0.1,0-0.1c0,0,0-0.1,0-0.1c-0.1-0.7-0.2-0.8-0.3-0.5c0,0,0,0,0,0
		c0.4-8,0.8-17,0.4-28.7c0.4-0.4,1.1,4.4,1.1-10.7c-0.1-20.6-1.8-9.5-2.2-13.5l0,0.5c-0.1-0.1-0.2-0.3-0.4-0.3
		c-0.3-2.8-0.9-0.9-1.4-10c0.1-0.1,0.1-0.2,0.1-0.3c0.3,0.5,0.5-3.2,0.4-10.6c-0.4-9.3-1.5-0.3-1.9-0.2c-0.2,0-0.3-1.2-0.2-5.2
		c0.1-0.1,0.2-0.3,0.2-0.5c0-0.1,0-0.2,0-0.2c0,0,0,0.1,0,0.1c0.1,0.3,0.3-0.9,0.3-4.6c-0.1-3.2-0.2-5.6-0.3-7.6
		c-0.7-16.6-1.1,9.8-2.2,2.7c-0.1-23.2-0.4-19.6-0.6-37.9c0,0,0,0,0.1,0c0.3,6.3,1,0.3,1.3,10.1c0-18.9,0.4-14.8,0.8-27.8
		c-1.7,16-1.4-24.2-2.7,3.8c-0.6-17.4-1-15.3-1-32.4c1.6,4.1,1,18.4,2.7,26l0.8-23c0.3,1.9,0.5,6.2,0.7,10.8
		c0.4,9.3,0.7,19.3,1.6,11.2c0.5-22.2,1.7,10.7,1.4-15.3c-1.6,1.7-2.1-20.2-3-29.6c-0.3-3.4-0.7-5.1-1.2-3.6
		c0.2,11.5,0.4,19.9-0.5,19.1c0.3-27.5-1.7-10.7-0.7-34.9l0.7,3.3c0.1-4.3-0.3-7.2-0.4-12c0.3-3.8,0.7,5.1,1-3.6
		c-0.2-1.3-0.3-2.9-0.4-4.6c-0.1-1.5-0.2-3.2-0.3-4.7c-0.2-3-0.4-5.4-0.9-5.5c0.3-4.8,0.5-2.3,0.9,1.9c0.2,2.2,0.3,4.6,0.5,6.6
		c0.1,1,0.2,2,0.3,2.7c0.1,0.7,0.2,1.1,0.3,1.2c0.1-3,0.1-4.7,0-5.9c0-1.2-0.1-1.9-0.2-2.6c-0.2-1.3-0.4-2.3-0.3-7.2
		c0.2-1.1,0.6,1.3,0.9,2.6c0.2,0.6,0.3,0.9,0.4,0.4c0.1-0.2,0.1-0.7,0.1-1.4c0.1,0,0.1,0,0.2,0.1c0.2,4.8,0.4,7.6,0.6,9.5
		c0.3,2.4,0.7,2.9,1,3.6c0.7,1.4,1.4,3.5,1.5,21.8c0.6-6,0.7-12.1,0.6-18.6c-0.1-3.6-0.2-7.4-0.2-11.2c-0.1-4.3-0.2-8.6-0.2-13.1
		c-4.2,0.1-8.6,0.1-13.1,0l10.4,0.3c-2.2,0.1-5.9,0.1-7.4-0.1c-2,0.3-1.2,0.4,0.7,0.6c2,0.2,5.1,0.3,8.1,0.4
		c-0.2,5.3-0.4,10.1-0.9,9l0.5-8.6l-2.1-0.1c-0.1,0.3-5.1,0.4-9.2,0.6c-4,0.1-7.2,0.3-5.1,0.5c-0.1,0-0.2,0.1-0.4,0.1c0,0,0,0,0,0
		c-0.1,0-0.2,0-0.4,0c-5,0.2-9.9,0.3-14.7,0.5c-3.3,0.1-6.6,0.3-9.9,0.4c-6.2,0.2-12.3,0.5-18.5,0.7c-18.7,0.8-37.2,1.6-57.4,2.2
		c-7.9,0-16.6-0.3-24.2-1l10.9,0c-14.1-0.2-15.3-1-19.4-2c-1.6-0.4-3.7-0.7-7.1-1.1c-14.1,0.3-13.4,0.8-19.5,1.1
		c-3.2,0.2-8.4,0.3-18.8,0.3c-5.8,0.4,2.8,0.7,7.7,0.7C475,5,473.5,4,467.8,3.6c-2.9-0.2-6.8-0.3-13.9,0c-0.5,0-0.9,0-1.4,0.1
		c-13.3,0.3,1.1,0.8-13,0.8c-0.5-0.2,6.5-0.5,11.1-0.8c3.1-0.2,5.1-0.5,2.7-0.8c-8,0.6-15,0.1-22.7,0.1c15.3-0.2,29.7-1.5,18.6-2.1
		c-27.3,0.2-14.3,1.8-34.7,2.4c3.4,0.1,5.6,0.3,6.8,0.4c5.2,0.7-4.1,1.9-2.3,2.6l18.1-0.3c-27.1,0.7-16.6,0.9-44.9,1.5
		c21.9-1.2-12.8-1.1-17.6-2.3c-9.2-0.1-19.9,0.4-25.8,0.8c-10.2,0.3-1.8,1.3,7.9,1.2c-12,0.4-36.7-0.4-56.9-0.5l3.3-0.7l-32.7,0.5
		c3.6-0.2,1.1-0.4,3.3-0.7c-11,0-24-0.5-34.9-0.5l0.5,1c25.8-0.8,9.4,0.6,31.4,0.6c-16.8,0.4-32.4,1-18.4,2.2
		c-16.3,0.2-39.5,0.1-48.7,1.2c-24.2,1.4,31.9,1.6,5.8,3.2c-0.2-0.5,5.4-1.4-9.9-1.6c-9.7,0.1-26.2,1-31.6,0.1
		c5.4-0.2,11.7,0.3,20.2,0.1c0.7-0.9-25.8-0.4-17.1-1.3l19.1,0.5c5.1-0.7,0.8-2.1-10.9-2.4c10.5,0.2,12-0.4,13-0.8
		c-10.9,0-16.8,0.4-21.9,1.2c-5.6-0.3-1.5-0.6-9.4-0.6c4.6,0.6-9,0.4-15.9,1.2c-12.2-1.3,7.9-2.4-11.9-3.2c-4.9,0-14.3,0.6-9.7,1.3
		c-20.7-1.1-26-2.1-56.6-2.4c-7.9,0-0.3,0.7-4.3,1.1l8.9-0.1c-12,0.4-1.3,1.6-27.3,1.1C65.8,7.1,60.2,5.7,61,4.8
		C65.9,4,83.4,3.9,91.5,3.6c1.2,0,2.1-0.1,2.8-0.1c-9.2-0.8-16.8,0.1-26.9,0.1c-1,0-1.9,0-2.9,0c-1.5,0-3.1,0-4.8-0.1
		c-0.1,0-0.3,0.1-0.5,0.1c-6.5,1.2-40.5,2-22.2,3.1c-7.4,0.4-11.7,0.3-15.3,0c-1.8-0.1-3.4-0.3-5.1-0.5c-1.7-0.2-3.6-0.3-5.3-0.4
		C7.9,6,4.2,6.1,0,6.2c0.1,4.6,0.3,9.4,0.4,13.9c0.1,5.3,0.3,10.1,0.3,13.7C1.5,42,1.6,56.5,2.9,50.5c0.1-9.2,0-15.9-0.4-23
		c1-19.4,1.3,12.8,2.1,3.9c-0.6,6.3-0.8,5.8-1.3,4.3C2.6,48.1,3.3,67.3,3.6,80.5L3.8,64c0.7-2.8,1.1,9.2,1.7-0.2
		c-0.7,13.8,0.1,31.6-0.6,47.1c0.9-2.3,1.2,18.9,1.7,26.6L6,145c0.3,2.3,0.8,2.1,0.9,8.7c-1.2,7.9-0.9-5.6-1.5-15l0.4-13
		c-0.9-11.8-1.9-24-2.8-1.1c0.2,5.4,0.7,11.3,0.4,19.9c-0.5,3.3-1,3.5-1.5,5.6L2,167.7c-0.1,4.4-1.5,5.6-1.7,16.1
		c-0.7,15.6,0,64.5,1.6,76.5c-1,8.4-0.7-19.1-1.5-15.1c-0.6,12.5,0.7,27.1,0.3,40.1l1.1,4.3c0-4.8,0.2-7.4-0.1-9.7
		c0.7-5.2,0.9,11.7,1.1,17.3c-0.8-13-0.6,14.2-1.4,18.2c-0.5,27,1.1,62.7,0.6,77c1.7,15.2,1.7,39.4,2.9,59.2
		c-0.7,11.3-1.5,35.9-0.5,46.1c1.9,0.2,1.6,30.9,3,25.3c0.4-20.4-1.1-26.6-1.5-40.8c1.3,12.1,1.6,7.2,3,5.4
		c-0.3-13.3,0-4.9,0.1-17.1c1,15.3-1.1,36.5,0.6,44.1c0-21.9,0.4-20.9,1.6-28.8c-0.2,13.6,0.7,8.2,0.9,16.6c-0.7,26.5-2-10-2,24.7
		c-1-10.5-0.6-4.6-1.6-13.8c-0.6,9.4,0.4,16.9,0.1,31.7c-1.1,9.7-1.1-14-1.6-4.1c0.4,4.1-0.9,33.9,0.8,31.9l0.5-16
		c1.6,19.8,2.1-10.2,3.4,15.3c-0.5,22.2-0.9-5.6-1.3-6.6c-0.7,15.5-1.8,20.4-1.9,45.4c0.6-12.5,1-2.9,1.3,5.8c0,1.1,0.1,2.2,0.1,3.2
		c0,0.5,0,1,0.1,1.5l0,0.3l0,0.1l0,0.1c0.1,0.3,0.2,0.6,0.2,0.6c0.1,0.1,0.2,0,0.3-0.3c0-0.1,0.1-0.3,0.2-0.5l0,0l0,0l0-0.1
		c0-0.2,0-0.4,0-0.5c0-0.4,0-0.8,0-1.2c0-0.8,0.1-1.7,0.1-2.7c0.3,1.4,0.5,5.7,0.6,4.9c0.1,0.3,0.2,0.6,0.3,0.9
		c-0.3-0.1-0.7,0.5-1.1,1.2c-0.1,0.2-0.2,0.4-0.6,0.6c0,0-0.1,0-0.1,0c0,0,0,0.1,0,0.1c0.8,0,1.6,0,2.5,0c3.3,0,6.6,0.1,9.6,0.1
		c7.8,0.1,14.4,0.4,17.4,1.1c10.7-0.5-0.5-1,5.9-1.6c-6.1-0.1-11,0-13-0.4c19.6,0.3,17.8-2,46.7-1.6c27,0.5-0.1,1.2,10.9,2.4
		c4.1,0.8,8.9-0.4,16.3-0.2l5.8,1.4l7.8-0.7c-2.1,0.5-2,1,6.3,1.3c-0.3,0.1-0.7,0.2-1.1,0.3l-4.3,0c-8.1-1.7,4,1.5-15.7-0.1
		c-5.4,0.4-6.9,1.1-6.7,1.4c1.7-0.6,14.1-0.6,23.7-0.7c-6.6,1.1-14.7,2.2,8.4,2.9c11.5-0.8,6.4,0.2,15.9,0.3
		c13.4-0.6,12.7-1.1,21.1-2l-10.9,0c5.5-0.6,17.9-0.7,30.5-0.5c30.6,0.9-30.6,1.8,5.7,2.3l9.2-1.5c8,1.5,28.4,1.7,49.6,1.3
		c-4.1,0.5-5.1,1,0.1,1.5c-1.3-1.2,27.4-0.5,21.3-1.8c-4.7-0.1-10.1,0.7-16.9,0.2c12.6,0.1,10.4-0.3,19.3-0.8
		c19.9,1.1-11.3,1,16.5,2.2c18.8,0.1,37.4,0,51-0.3l-11.9-0.8l17.5-1.1c3.1,0-13,2.2,9,1c11.7-0.6-1.8-1.6,8.2-2.3
		c-12.8-0.3-23.1,0.2-35.5,0.3l2.5,0.9l-11.4-0.4c4.5-1.6,42.1,0.1,43-1.9c-1.3,1.6,36.4,0.5,22,1.6c21.5-0.3,1.6-1.4,18-2l9.9,0.5
		c16.5-0.6-10.7-1.1,4.4-1.6c-2,1,14.2,1.5,22.4,2l-14.8,0.7c-6.2,0,11.3-1-4.2-1c-6.6-0.4-35.8,1.4-23.5,2.6
		c11.1,0.2,16-1,26.7-1.1c-0.6,2.2,23.3,0,19.8,2.4c22.9-0.4,16.6-1.9,21.7-2.9c2.1,0.5-4.4,1.6,9.2,1.2l-0.1-1.2
		c1.5,1.2,21.4,1.5,32.2,2c8.2-1,5.5-3.4,21.2-3.3c-1.3-0.3-7-0.2-10.7-0.1c6.3-0.6,9-1.7,22.2-0.8c-11,1.2-8.9,1.7-21.2,3.3
		c8.7-0.4,25.7-1.7,42-2.2c-5.3,0.2-22.9,2.2-5.4,3c14.8-0.7,21.7-1.4,39.9-1.9c-5,1-31.6,2.3-9,3c-5.4,0.3-11.4,0.6-18.1,0.8
		c0,0,0,0,0,0c0.2,0.2,0.4,0.3,0.7,0.4c6.9,0.2,13.1,0.5,17.8,0.4c2.7-0.4-11.4-0.4-0.9-0.8l0.4,0.4c4.7,0.1,11.5,0,12.8-0.3
		c4.1,0.8,18.1,0.5,26.9,1c5.3-0.4,18.3-1.2,8.7-1.4c6.8,0.1,16.9,0.2,20.3-0.5c16.6-1.6-7.1-2.3-1.5-3.5c1.6,0.5,9.6,1.2,7.3,1.8
		l7.3-0.6c-2.2-0.7-4.1-2.6-4.8-4.8l6.8-0.7c1.3-0.1,2.6-0.3,3.9-0.2c2.3,0,4.5,0.5,6.7,0.9c0.1-1.4,0.3-2.8,0.4-4.3
		c0.1-0.8,0.2-1.6,0.7-2.1c0.3-0.3,0.6-0.4,0.9-0.6c-0.6-34-0.1-71.7-1-94.7C681.1,518.6,681.8,537.7,681,523z"/>
</g>
</svg>
